<svg width="1024" height="1024" viewBox="0 0 1024 1024" fill="none" xmlns="http://www.w3.org/2000/svg">
<rect width="1024" height="1024" fill="#123456"/>
<path d="M509.258 261.648C580.426 261.648 632.138 276.496 664.394 306.192C697.162 335.888 713.546 376.848 713.546 429.072C713.546 460.304 706.89 489.744 693.578 517.392C680.266 544.528 657.738 566.544 625.994 583.44C594.762 599.824 552.266 608.016 498.506 608.016H443.978V810H345.674V261.648H509.258ZM503.114 343.056H443.978V526.608H488.522C528.458 526.608 559.178 519.44 580.682 505.104C602.698 490.256 613.706 466.192 613.706 432.912C613.706 402.704 604.746 380.176 586.826 365.328C568.906 350.48 541.002 343.056 503.114 343.056Z" fill="white"/>
</svg>
