<svg width="128" height="128" viewBox="0 0 128 128" fill="none" xmlns="http://www.w3.org/2000/svg">
<rect width="128" height="128" fill="#123456"/>
<path d="M63.6573 32.456C72.5533 32.456 79.0173 34.312 83.0493 38.024C87.1453 41.736 89.1933 46.856 89.1933 53.384C89.1933 57.288 88.3613 60.968 86.6973 64.424C85.0333 67.816 82.2173 70.568 78.2493 72.68C74.3453 74.728 69.0333 75.752 62.3133 75.752H55.4973V101H43.2093V32.456H63.6573ZM62.8893 42.632H55.4973V65.576H61.0653C66.0573 65.576 69.8973 64.68 72.5853 62.888C75.3373 61.032 76.7133 58.024 76.7133 53.864C76.7133 50.088 75.5933 47.272 73.3533 45.416C71.1133 43.56 67.6253 42.632 62.8893 42.632Z" fill="white"/>
</svg>
